<mxfile host="app.diagrams.net" modified="2024-05-27T01:43:54.981Z" agent="Mozilla/5.0 (Macintosh; Intel Mac OS X 10_15_7) AppleWebKit/537.36 (KHTML, like Gecko) Chrome/125.0.0.0 Safari/537.36" version="24.4.8" etag="Y4GLQiqWA2Q_eNrDw8_q" type="github">
  <diagram name="Trang-1" id="fmnjqTE-lBwtaBEDD4uG">
    <mxGraphModel>
      <root>
        <mxCell id="0" />
        <mxCell id="1" parent="0" />
      </root>
    </mxGraphModel>
  </diagram>
</mxfile>
